<?xml version="1.0" encoding="utf-8"?>
<!-- Generator: Adobe Illustrator 19.0.0, SVG Export Plug-In . SVG Version: 6.00 Build 0)  -->
<svg version="1.0" id="Calque_1" xmlns="http://www.w3.org/2000/svg" xmlns:xlink="http://www.w3.org/1999/xlink" x="0px" y="0px"
	 width="516px" height="248px" viewBox="0 0 516 248" style="enable-background:new 0 0 516 248;" xml:space="preserve">
<g>
	<g>
		<g>
			<path style="fill:#FFFFFF;" d="M70.1,13.6c0.1,4.5,0.7,13.3,1.1,20l-3.6,0.2c-1.3-5.5-2.4-8.8-4.1-10.7c-1.8-1.9-4.5-2.4-8.9-2.4
				h-5v52c0,9,0.9,9.9,9.5,10.6v3.6H26.5v-3.6c8.3-0.7,9.1-1.5,9.1-10.6v-52h-4c-6.1,0-8.4,0.8-10,2.9c-1.5,1.9-2.6,5.5-3.9,10.3
				h-3.7c0.4-7.3,1.1-14.9,1.2-20.4H18c1.6,2.2,2.9,2.8,5.8,2.8h38.1c2.5,0,4-0.7,5.6-2.8H70.1 M73,10.6h-2.9h-2.6H66l-0.9,1.1
				c-1.1,1.3-1.6,1.6-3.3,1.6H23.8c-2.1,0-2.4-0.2-3.4-1.5l-0.9-1.2H18h-2.6h-2.9l-0.1,2.9c-0.1,3.6-0.4,8.2-0.7,13
				c-0.2,2.4-0.3,4.8-0.5,7.2l-0.2,3.2h3.2h3.7h2.3l0.6-2.3c1-3.9,2-7.7,3.3-9.2l0,0l0,0c0.7-0.9,1.8-1.7,7.7-1.7h1v49
				c0,1.8,0,5.6-0.7,6.4c-0.6,0.7-3.9,1-5.6,1.1l-2.8,0.2v2.8v3.6v3h3h32.6h3v-3v-3.6v-2.8l-2.8-0.2c-1.8-0.1-5.3-0.4-6-1.2
				c-0.7-0.8-0.7-4.6-0.7-6.4v-49h2c3.8,0,5.7,0.4,6.7,1.4c1.4,1.6,2.4,5.4,3.4,9.3l0.6,2.4l2.5-0.2l3.6-0.2l3-0.2l-0.2-3
				c-0.4-6.4-1-15.3-1.1-19.9L73,10.6L73,10.6z"/>
		</g>
		<g>
			<path style="fill:#FFFFFF;" d="M146.6,16.3v3.6c-7.6,0.7-8.5,1.3-8.5,10.2V73c0,8.8,1,9.6,8.3,10.3v3.6h-30.7v-3.6
				c7.5-0.7,8.5-1.5,8.5-10.2V52.2H99.5v20.9c0,8.9,0.9,9.6,8,10.2v3.6H77v-3.6c7.4-0.7,8.4-1.4,8.4-10.2V30.2c0-8.9-1-9.6-8.7-10.2
				v-3.6h30.6v3.6c-6.9,0.7-7.8,1.3-7.8,10.2v16.5h24.6V30.2c0-8.9-1-9.6-8-10.2v-3.6H146.6 M149.6,13.3h-3h-30.5h-3v3v3.6v2.7
				l2.7,0.3c1.5,0.1,4.2,0.4,4.6,0.9c0.7,0.8,0.7,4.8,0.7,6.3v13.5h-18.6V30.2c0-1.7,0-5.5,0.7-6.3c0.4-0.5,3.1-0.8,4.4-0.9l2.7-0.3
				v-2.7v-3.6v-3h-3H76.7h-3v3v3.6v2.8l2.7,0.2c1.6,0.1,4.7,0.4,5.2,1c0.7,0.8,0.7,4.7,0.7,6.2v42.9c0,1.6,0,5.4-0.7,6.2
				c-0.5,0.6-3.5,0.9-4.9,1L74,80.6v2.7v3.6v3h3h30.5h3v-3v-3.6v-2.7l-2.7-0.3c-1.4-0.1-4.2-0.4-4.7-0.9c-0.7-0.8-0.7-4.7-0.7-6.3
				V55.2h18.6v17.9c0,1.6,0,5.3-0.7,6.2c-0.6,0.7-3.6,0.9-5,1.1l-2.7,0.2v2.7v3.6v3h3h30.7h3v-3v-3.6v-2.7l-2.7-0.3
				c-1.5-0.2-4.3-0.5-4.9-1.1c-0.7-0.9-0.7-4.6-0.7-6.3V30.2c0-1.6,0-5.5,0.7-6.3c0.5-0.6,3.5-0.8,5.1-1l2.7-0.2v-2.8v-3.6V13.3
				L149.6,13.3z"/>
		</g>
		<g>
			<path style="fill:#FFFFFF;" d="M201.6,16.3c0.1,1.8,0.7,9.5,1.1,15.6l-3.7,0.5c-1.1-4-2.2-6.9-3.9-8.8c-1.5-2-4.4-3-11-3h-4
				c-3.5,0-4,0.3-4,4v23.1h6.3c8.7,0,9.7-0.4,11.3-8.1h3.7v21.6h-3.7c-1.7-7.9-2.5-8.3-11.3-8.3h-6.3v19.9c0,5.2,0.6,7.6,2.3,8.5
				c1.6,1,4.6,1.2,8.6,1.2c5.8,0,9-0.9,11.3-3.5c1.9-2.3,3.7-5.5,5.5-10.1l3.7,0.9c-0.7,4.2-2.6,14-3.5,17.2h-51.2v-3.6
				c8.1-0.8,9.1-1.3,9.1-10.3V30.1c0-8.9-1-9.5-7.9-10.1v-3.6H201.6 M204.4,13.3h-2.8h-47.4h-3v3v3.6v2.7l2.7,0.3
				c1.4,0.1,4.1,0.4,4.5,0.9c0.7,0.8,0.7,4.7,0.7,6.2V73c0,1.6,0,5.5-0.7,6.2c-0.6,0.6-3.7,0.9-5.7,1.1l-2.7,0.3v2.7v3.6v3h3h51.2
				h2.3l0.6-2.2c0.9-3.3,2.9-13.3,3.6-17.5l0.4-2.8l-2.7-0.6l-3.7-0.9l-2.6-0.6l-0.9,2.5c-1.5,3.9-3.1,6.9-5,9.3
				c-1.4,1.6-3.3,2.5-9,2.5c-1.4,0-5.7,0-7-0.8l-0.1-0.1l-0.1-0.1c-0.1-0.1-0.7-1.1-0.7-5.8V55.9h3.3c2.7,0,5.8,0,6.6,0.6
				c0.7,0.5,1.3,3,1.8,5.3l0.5,2.4h2.4h3.7h3v-3V39.6v-3h-3h-3.7h-2.4l-0.5,2.4c-0.6,2.7-1.1,4.6-1.8,5.1c-0.9,0.6-3.5,0.6-6.6,0.6
				h-3.3V24.7c0-0.4,0-0.7,0-0.9c0.2,0,0.5,0,0.9,0h4c6.5,0,8,1,8.6,1.8l0.1,0.1l0.1,0.1c1.4,1.6,2.4,4.7,3.2,7.6l0.7,2.6l2.6-0.4
				l3.7-0.5l2.8-0.4l-0.2-2.8c-0.4-5.1-1-13.8-1.1-15.6L204.4,13.3L204.4,13.3z"/>
		</g>
		<g>
			<path style="fill:#FFFFFF;" d="M282.1,16.3c0.1,1.8,0.6,9.6,1.1,15.8l-3.6,0.6c-1.1-3.9-2.1-6.7-3.9-8.9c-2-2.4-5.1-3.1-10.8-3.1
				h-4.8c-3.4,0-4,0.3-4,3.9v24.3h8.5c8.7,0,9.7-0.8,11-7.9h3.6v21.3h-3.6c-1.3-7.6-2.3-8.4-11-8.4h-8.5v18.4c0,9.4,0.8,10.3,9.1,11
				v3.6h-31.1v-3.6c6.9-0.7,7.9-1.5,7.9-10.9V30.6c0-9.2-1-10.1-7.9-10.8v-3.5H282.1 M284.9,13.3h-2.8h-48h-3v3v3.5v2.7l2.7,0.3
				c1.3,0.1,4,0.4,4.5,1c0.7,1,0.7,5,0.7,6.8v41.8c0,1.8,0,5.9-0.8,6.9c-0.4,0.6-2.4,0.8-4.5,1l-2.7,0.3v2.7v3.6v3h3h31.1h3v-3v-3.6
				v-2.8l-2.8-0.2c-1.6-0.1-5-0.4-5.6-1.2c-0.7-0.9-0.7-4.8-0.7-6.9V56.9h5.5c2.7,0,5.6,0.1,6.4,0.7c0.7,0.6,1.2,3,1.6,5.2l0.4,2.5
				h2.5h3.6h3v-3V41v-3h-3h-3.6h-2.5l-0.5,2.5c-0.5,2.5-0.9,4.3-1.5,4.8c-0.9,0.7-3.8,0.7-6.5,0.7h-5.5V24.6c0-0.3,0-0.6,0-0.8
				c0.2,0,0.5,0,0.9,0h4.8c5.7,0,7.4,0.7,8.5,2c1.4,1.7,2.2,4.2,3.3,7.8l0.7,2.5l2.6-0.4l3.6-0.6l2.8-0.4l-0.2-2.8
				c-0.5-5.3-0.9-11.9-1-14.7l-0.1-1.1L284.9,13.3L284.9,13.3z"/>
		</g>
		<g>
			<path style="fill:#FFFFFF;" d="M320.4,16.3v3.6c-7.4,0.7-8.1,1.5-8.1,10.6v42.4c0,8.7,0.8,9.8,8.1,10.5v3.6H290v-3.6
				c7.3-0.7,8.1-1.7,8.1-10.5V30.5c0-9-0.8-9.9-8.1-10.6v-3.6H320.4 M323.4,13.3h-3H290h-3v3v3.6v2.7l2.7,0.2c1.3,0.1,4.3,0.4,4.7,1
				c0.7,0.9,0.7,4.7,0.7,6.6v42.4c0,1.8,0,5.5-0.7,6.4c-0.5,0.7-3.5,0.9-4.7,1l-2.7,0.2v2.7v3.6v3h3h30.4h3v-3v-3.6v-2.7l-2.7-0.2
				c-1.3-0.1-4.2-0.4-4.7-1.1c-0.7-0.9-0.7-4.6-0.7-6.4V30.5c0-1.9,0-5.7,0.7-6.6c0.5-0.6,3.5-0.9,4.7-1l2.7-0.2v-2.7v-3.6V13.3
				L323.4,13.3z"/>
		</g>
		<g>
			<path style="fill:#FFFFFF;" d="M357.7,16.3c8,0,12.9,1.1,17.1,3.9c4.3,3,7,7.7,7,14.4c0,9.4-5.5,14.7-12.7,17.8
				c1.4,3.3,5.3,10.8,8.4,15.8c3.5,5.9,5.6,9.1,7.7,11.6c2.4,2.6,4.5,4.3,6.5,5.1l-0.5,3.2c-1.2,0-2.5,0-4-0.1
				c-12.7-0.6-16.4-3.5-20.7-10.6c-2.6-4.3-5.6-10.2-8.4-16.1c-1.5-3.4-3-5-6.3-5.1H350v16.4c0,9,0.9,10.1,8.3,10.7v3.6h-30.5v-3.6
				c7.6-0.6,8.5-1.7,8.5-10.7V30.2c0-8.8-0.8-9.5-8-10.2v-3.6H357.7 M350,52h3c4.2,0,6.8-0.8,9.1-2.8c3.2-2.6,4.7-7,4.7-13
				c0-11.6-6.3-15.7-11.9-15.7c-2.3,0-3.5,0.4-4.2,1c-0.5,0.8-0.8,1.7-0.8,4.1V52 M357.7,13.3h-29.5h-3v3v3.6v2.7l2.7,0.3
				c1.4,0.1,4.3,0.5,4.7,1c0.6,0.8,0.6,4.6,0.6,6.2v42.5c0,1.9,0,5.7-0.7,6.6c-0.6,0.7-3.6,0.9-5,1l-2.8,0.2v2.8v3.6v3h3h30.5h3v-3
				v-3.6v-2.8l-2.8-0.2c-1.3-0.1-4.2-0.3-4.7-1c-0.7-0.9-0.7-4.8-0.7-6.7V59.4c0.8,0.3,1.4,1,2.4,3.1c3.4,7.3,6.2,12.6,8.5,16.4
				c4.7,7.8,9.2,11.4,23.1,12c1.5,0.1,2.9,0.1,4.1,0.1h2.5l0.4-2.5l0.5-3.2l0.4-2.4l-2.3-0.9c-1.5-0.6-3.2-2-5.3-4.3
				c-1.9-2.2-3.8-5.1-7.4-11.1c-2.5-4-5.2-9.3-7-12.9c7.7-4.2,11.7-10.8,11.7-19.2c0-7.3-2.9-13.1-8.3-16.9l0,0l0,0
				C371.7,14.6,366.3,13.3,357.7,13.3L357.7,13.3z M353.1,23.7c0.3-0.1,0.9-0.2,1.9-0.2c4.3,0,8.9,3.3,8.9,12.7
				c0,5.1-1.2,8.7-3.6,10.7l0,0l0,0c-1.5,1.2-3.2,2-7.1,2V25.6C353,24.6,353,24,353.1,23.7L353.1,23.7z"/>
		</g>
		<g>
			<path style="fill:#FFFFFF;" d="M420.5,14.9c5.8,0,11.2,1.7,14,2.6c0.3,4.2,1.1,8.9,2.1,15.4l-3.7,0.7c-2.3-6.8-5.6-14.5-14-14.5
				c-5.2,0-9.5,4.3-9.5,10.7c0,6.3,3.9,9.7,12.3,14.5c10.6,5.7,18,11.8,18,22.7c0,12-9.7,21.5-25.1,21.5c-3.6,0-6.9-0.6-9.9-1.3
				c-2.9-0.9-4.8-1.6-6.5-2.3c-1-3-2.2-11.2-3-17.6l3.7-1.2c2.1,6.7,7.6,18.2,17.6,18.2c6.2,0,10.1-4.5,10.1-11.1
				c0-6.3-4.2-10.6-12-15.1c-9.8-5.6-17.8-11.8-17.8-22.3C396.9,24.1,405.3,14.9,420.5,14.9 M420.5,11.9c-8,0-14.7,2.4-19.5,6.9
				c-4.5,4.2-7,10.2-7,16.8c0,12.2,9.3,19.2,19.3,24.9c7.5,4.4,10.5,7.9,10.5,12.5c0,5-2.7,8.1-7.1,8.1c-9.3,0-13.9-13.4-14.7-16
				l-0.9-2.9l-2.9,0.9l-3.7,1.2L392,65l0.3,2.5c0.4,3.3,1.8,14.2,3.1,18.2l0.4,1.3l1.3,0.5c1.7,0.7,3.8,1.5,6.7,2.4l0.1,0l0.1,0
				c3.7,1,7.2,1.4,10.7,1.4c8.1,0,15.2-2.4,20.3-7c5-4.5,7.8-10.7,7.8-17.5c0-12.9-9.4-19.8-19.6-25.3c-8.4-4.8-10.8-7.5-10.8-11.9
				c0-4.4,2.7-7.7,6.5-7.7c5.7,0,8.5,4.8,11.1,12.5l0.8,2.4l2.5-0.4l3.7-0.7l2.9-0.5l-0.4-2.9l-0.4-2.3c-0.8-5.2-1.4-9.3-1.7-12.8
				l-0.2-1.9l-1.8-0.7C431.9,13.4,426.4,11.9,420.5,11.9L420.5,11.9z"/>
		</g>
		<g>
			<path style="fill:#FFFFFF;" d="M500.7,13.6c0.1,4.5,0.7,13.3,1.1,20l-3.6,0.2c-1.3-5.5-2.4-8.8-4.1-10.7
				c-1.8-1.9-4.5-2.4-8.9-2.4h-5v52c0,9,0.9,9.9,9.5,10.6v3.6h-32.6v-3.6c8.3-0.7,9.1-1.5,9.1-10.6v-52h-4c-6.1,0-8.4,0.8-10,2.9
				c-1.5,1.9-2.6,5.5-3.9,10.3h-3.7c0.4-7.3,1.1-14.9,1.2-20.4h2.6c1.7,2.2,2.9,2.8,5.8,2.8h38.1c2.5,0,4-0.7,5.6-2.8H500.7
				 M503.6,10.6h-2.9H498h-1.5l-0.9,1.1c-1.1,1.3-1.6,1.6-3.3,1.6h-38.1c-2.1,0-2.4-0.2-3.4-1.6l-0.9-1.2h-1.5h-2.6H443l-0.1,2.9
				c-0.1,3.6-0.4,8.2-0.7,13.1c-0.2,2.4-0.3,4.8-0.5,7.2l-0.2,3.2h3.2h3.7h2.3l0.6-2.3c0.6-2.4,1.9-7.5,3.3-9.2l0,0l0,0
				c0.7-0.9,1.8-1.7,7.7-1.7h1v49c0,1.8,0,5.6-0.7,6.4c-0.6,0.7-3.9,1-5.6,1.1l-2.8,0.2v2.8v3.6v3h3h32.6h3v-3v-3.6v-2.8l-2.8-0.2
				c-1.8-0.1-5.3-0.4-6-1.2c-0.7-0.8-0.7-4.6-0.7-6.4v-49h2c3.8,0,5.7,0.4,6.7,1.4c1.4,1.6,2.4,5.4,3.4,9.3l0.6,2.4l2.5-0.2l3.6-0.2
				l3-0.2l-0.2-3c-0.7-9.9-1-16.5-1.1-19.9L503.6,10.6L503.6,10.6z"/>
		</g>
	</g>
	<g>
		<g>
			<path style="fill:#FFFFFF;" d="M58.9,100c10.4,0,20,2.9,24.9,4.7c0.6,7.4,2,15.9,3.7,27.4l-6.7,1.2c-4.1-12.1-10-25.8-24.9-25.8
				c-9.2,0-16.8,7.6-16.8,19c0,11.2,6.9,17.2,21.9,25.8c18.8,10.2,32.1,20.9,32.1,40.3c0,21.3-17.2,38.2-44.6,38.2
				c-6.5,0-12.3-1-17.6-2.3c-5.1-1.6-8.6-2.9-11.6-4.1c-1.8-5.3-3.9-20-5.3-31.3l6.7-2.2c3.7,11.9,13.5,32.3,31.3,32.3
				c11,0,18-8,18-19.8c0-11.2-7.4-18.8-21.3-26.8c-17.4-10-31.7-20.9-31.7-39.7C17,116.4,31.9,100,58.9,100 M58.9,97
				c-13.6,0-25.1,4-33.1,11.6c-7.6,7.1-11.8,17.1-11.8,28.2c0,21.5,17.1,33.1,33.2,42.3c14.3,8.2,19.8,15,19.8,24.2
				c0,10.2-5.9,16.8-15,16.8c-17.7,0-26.3-23.1-28.5-30.2l-0.9-2.9l-2.9,0.9l-6.7,2.2l-2.4,0.8l0.3,2.5c1.4,11.9,3.6,26.5,5.4,31.9
				l0.4,1.3l1.3,0.5c3,1.2,6.6,2.6,11.8,4.2l0.1,0l0.1,0c6.3,1.6,12.4,2.4,18.4,2.4c13.9,0,25.9-4.1,34.6-11.8
				c8.4-7.5,13-17.9,13-29.3c0-20.5-13.4-32-33.6-43c-15.8-9-20.4-14.2-20.4-23.2c0-9.3,5.8-16,13.8-16c11.6,0,17.2,9.5,22,23.8
				l0.8,2.4l2.5-0.4L88,135l2.9-0.5l-0.4-2.9l-0.6-4.1c-1.4-9.3-2.6-16.6-3.1-23l-0.2-1.9l-1.8-0.7C78.6,99.6,69.1,97,58.9,97
				L58.9,97z"/>
		</g>
		<g>
			<path style="fill:#FFFFFF;" d="M152.3,102.5c15.1,0,24.7,2.2,32.3,7.2c8.8,5.9,14.1,15.7,14.1,28.8c0,25.5-17.8,37.6-38.4,40.1
				c-2.7,0.4-4.7,0.4-6.9,0.4l-11.4-3.1v27.6c0,16.1,1.2,17.6,16.4,19v5.7H103v-5.7c13.1-1.4,14.5-2.9,14.5-19V128
				c0-16.1-1.4-17.6-13.5-19v-6.5H152.3 M151.3,170.3c5.7,0,20.6-4.5,20.6-30.9c0-22.9-11.4-29.8-21.5-29.8c-3.3,0-5.1,0.8-6.3,1.8
				c-1.6,1-2,3.1-2,6.3v50.9C144.7,169.5,147.6,170.3,151.3,170.3 M152.3,99.5H104h-3v3v6.5v2.7l2.7,0.3c5.9,0.7,8.2,1.3,9.2,2.8
				c1.4,1.9,1.6,6.3,1.6,13.2v75.6c0,7.1-0.3,11.3-1.7,13.2c-1.3,1.6-4.4,2.2-10.1,2.8l-2.7,0.3v2.7v5.7v3h3h55.6h3v-3v-5.7v-2.7
				l-2.7-0.2c-6.8-0.6-10.5-1.2-11.9-3c-1.5-1.7-1.8-5.8-1.8-13v-23.7l7.6,2.1l0.4,0.1h0.4c2.2,0,4.3,0,7.2-0.4
				c25.7-3.2,41-19.3,41-43.1c0-13.5-5.5-24.6-15.4-31.3C178.1,101.9,168,99.5,152.3,99.5L152.3,99.5z M145.1,166.4v-48.8
				c0-3.3,0.5-3.7,0.5-3.7l0.2-0.1l0.2-0.1c0.5-0.5,1.6-1.1,4.3-1.1c5.6,0,18.5,2.6,18.5,26.8c0,27.6-16.8,27.9-17.6,27.9
				C149.2,167.3,147.2,167,145.1,166.4L145.1,166.4z"/>
		</g>
		<g>
			<path style="fill:#FFFFFF;" d="M264.1,102.5v6.5c-13.1,1.2-14.5,2.7-14.5,18.8v75.4c0,15.5,1.4,17.4,14.5,18.6v6.5h-54v-6.5
				c12.9-1.2,14.5-2.9,14.5-18.6v-75.4c0-16.1-1.4-17.6-14.5-18.8v-6.5H264.1 M267.1,99.5h-3h-54h-3v3v6.5v2.7l2.7,0.2
				c5.7,0.5,8.8,1.1,10.1,2.7c1.4,1.8,1.7,6.2,1.7,13.1v75.4c0,6.7-0.3,11-1.8,12.9c-1.2,1.5-3.7,2.2-10,2.7l-2.7,0.2v2.7v6.5v3h3
				h54h3v-3v-6.5V219l-2.7-0.2c-6.3-0.6-8.9-1.3-10.1-2.8c-1.4-1.8-1.7-6.1-1.7-12.8v-75.4c0-6.9,0.3-11.3,1.7-13.1
				c1.3-1.6,4.4-2.2,10.1-2.7l2.7-0.2V109v-6.5V99.5L267.1,99.5z"/>
		</g>
		<g>
			<path style="fill:#FFFFFF;" d="M397,102.5v6.1c-10.2,0.6-13.5,3.5-14.3,10.6c-0.8,6.1-2,15.9-2,32.9v78.1h-9.6l-69.5-94.9h-0.6
				v42.9c0,16.2,1,26.4,1.6,32.3c1,7.4,4.1,10.8,17.6,11.6v6.3h-44.6V222c10.4-0.6,13.9-3.9,14.9-11.4c0.6-6.1,1.8-16.2,1.8-32.5
				v-40.9c0-12.9-0.2-16.4-3.3-20.8c-3.3-4.7-7.2-7-15.1-7.8v-6.1h33.5l63.8,83.8h0.8v-34.3c0-17-1-26.8-1.8-32.9
				c-1-6.9-4.7-9.8-17.2-10.6v-6.1H397 M400,99.5h-3h-44h-3v3v6.1v2.8l2.8,0.2c12.5,0.8,13.8,3.7,14.4,8c0.7,5.7,1.7,15.4,1.7,32.5
				v26.4l-59.2-77.7l-0.9-1.2h-1.5h-33.5h-3v3v6.1v2.7l2.7,0.3c7.4,0.7,10.4,3,12.9,6.6c2.6,3.5,2.8,6.3,2.8,19v40.9
				c0,14.6-0.9,24.1-1.6,30.4l-0.2,1.7c-0.7,5.6-2.7,8.2-12.1,8.7l-2.8,0.2v2.8v6.3v3h3h44.6h3v-3V222v-2.8l-2.8-0.2
				c-13.1-0.8-14.1-3.7-14.8-8.9c-0.5-5.4-1.5-15.5-1.5-32v-34.5l64.7,88.3l0.9,1.2h1.5h9.6h3v-3v-78.1c0-17.5,1.3-27.3,1.9-32.5
				l0,0l0,0c0.5-4.5,1.5-7.3,11.5-7.9l2.8-0.2v-2.8v-6.1V99.5L400,99.5z"/>
		</g>
		<g>
			<path style="fill:#FFFFFF;" d="M491,102.5c0.2,3.1,1.2,16.8,2,27.8l-6.7,1c-2-7-3.9-12.3-6.9-15.7c-2.7-3.5-7.8-5.3-19.6-5.3h-7
				c-6.3,0-7,0.6-7,7v41.1h11.2c15.5,0,17.2-0.8,20.2-14.5h6.7v38.4h-6.7c-2.9-14.1-4.5-14.7-20.2-14.7h-11.2v35.4
				c0,9.2,1,13.5,4.1,15.1c2.9,1.8,8.2,2.2,15.3,2.2c10.4,0,16.1-1.6,20.2-6.3c3.3-4.1,6.7-9.8,9.8-18l6.7,1.6
				c-1.2,7.4-4.7,24.9-6.3,30.5h-91v-6.5c14.5-1.4,16.2-2.3,16.2-18.4V127c0-15.9-1.8-16.8-14.1-18v-6.5H491 M493.8,99.5H491h-84.4
				h-3v3v6.5v2.7l2.7,0.3c5.7,0.5,8.5,1,9.7,2.4c1.4,1.7,1.7,6.1,1.7,12.6v76.4c0,6.7-0.3,11-1.9,12.7c-1.6,1.7-5.6,2.2-11.6,2.8
				l-2.7,0.3v2.7v6.5v3h3h91h2.3l0.6-2.2c1.6-5.9,5.2-23.4,6.3-30.9l0.4-2.8l-2.7-0.6l-6.7-1.6l-2.6-0.6l-0.9,2.5
				c-2.7,7.2-5.8,12.8-9.3,17.1c-3.3,3.8-8.2,5.2-17.9,5.2c-5.4,0-11.2-0.2-13.7-1.7l-0.1-0.1l-0.1-0.1c-1.7-0.8-2.5-4.7-2.5-12.4
				v-32.4h8.2c6.8,0,11.1,0.1,13.1,1.5c1.8,1.3,2.8,4.6,4.1,10.8l0.5,2.4h2.4h6.7h3v-3V144v-3h-3h-6.7h-2.4l-0.5,2.4
				c-1.3,6-2.3,9.2-4.2,10.5c-2.1,1.5-6.5,1.6-13.1,1.6h-8.2v-38.1c0-2.5,0.1-3.4,0.3-3.8c0.7-0.3,3-0.3,3.8-0.3h7
				c12.3,0,15.6,2.1,17.2,4.1l0.1,0.1l0.1,0.1c2.8,3.2,4.6,8.8,6.2,14.5l0.7,2.5l2.6-0.4l6.7-1l2.8-0.4l-0.2-2.8l-0.1-1.2
				c-0.8-10.5-1.7-23.6-1.9-26.6L493.8,99.5L493.8,99.5z"/>
		</g>
	</g>
</g>
<g>
	<path style="fill:#FFFFFF;" d="M28,85.4v-0.8c7.9-0.8,9.1-2.7,9.1-11.9V19.2h-5.5c-6.3,0-9.2,0.9-11.2,3.4
		c-1.5,1.9-2.6,5.1-3.8,9.8h-1c0.1-1.9,0.2-3.7,0.4-5.6c0.3-4.3,0.6-8.3,0.7-11.8h0.5c1.7,2.1,3.4,2.7,6.6,2.7h38.1
		c2.8,0,4.6-0.8,6.3-2.7h0.5c0.2,4.5,0.6,11.5,1,17.1l-0.9,0.1c-1.2-4.8-2.3-8.1-4.1-10.1c-2.3-2.4-5.7-2.9-10-2.9h-6.5v53.5
		c0,9.3,1.3,11.1,9.5,11.9v0.8H28z"/>
	<path style="fill:#FFFFFF;" d="M117.2,85.4v-0.8c7.2-0.8,8.5-2.8,8.5-11.6V50.7H98v22.4c0,8.9,1.1,10.8,8,11.6v0.8H78.5v-0.8
		c7.1-0.8,8.4-2.8,8.4-11.6V30.2c0-8.9-1.2-10.8-8.7-11.6v-0.8h27.6v0.8C99,19.4,98,21.3,98,30.2v18h27.6v-18c0-8.8-1.2-10.7-8-11.6
		v-0.8h27.5v0.8c-7.3,0.8-8.5,2.7-8.5,11.6V73c0,8.8,1.2,10.7,8.3,11.7v0.8H117.2z"/>
	<path style="fill:#FFFFFF;" d="M154.4,85.4v-0.8c7.6-0.8,9.1-2.3,9.1-11.7V30.1c0-8.8-1.1-10.6-7.9-11.5v-0.8h44.5
		c0.2,2.6,0.5,7.8,0.9,12.8l-1.1,0.2c-0.9-3.1-2-6.1-3.8-8.1c-1.9-2.5-5.3-3.5-12.1-3.5h-4c-4.4,0-5.5,1.1-5.5,5.5v24.6h7.8
		c8.7,0,10.8-0.6,12.5-8.1h1v18.6h-1c-1.7-7.7-3.6-8.3-12.5-8.3h-7.8v21.4c0,5.2,0.5,8.5,3.1,9.8c2,1.2,5.1,1.4,9.3,1.4
		c5.4,0,9.5-0.7,12.5-4c2-2.5,3.7-5.5,5.3-9.4l1.1,0.3c-0.7,4.1-2.1,11-3,14.5H154.4z"/>
	<path style="fill:#FFFFFF;" d="M235.6,85.4v-0.8c6.8-0.8,7.9-2.9,7.9-12.2V30.6c0-9.2-1.1-11.3-7.9-12.1v-0.7h45.1
		c0.2,2.7,0.5,8.2,0.9,13.1l-0.9,0.1c-1.1-3.5-2.1-6.1-3.8-8.2c-2.5-3-6.3-3.6-12-3.6h-4.8c-4,0-5.5,0.8-5.5,5.4v25.8h10
		c8.9,0,10.8-1.1,12.2-7.9h0.9v18.3h-0.9c-1.4-7.2-3.3-8.4-12.3-8.4h-10v19.9c0,9.6,1.2,11.6,9.1,12.4v0.8H235.6z"/>
	<path style="fill:#FFFFFF;" d="M291.5,85.4v-0.8c7-0.8,8.1-2.8,8.1-11.8V30.5c0-9.2-1.1-11.1-8.1-11.9v-0.8h27.4v0.8
		c-7,0.8-8.1,2.7-8.1,11.9v42.4c0,8.5,0.8,10.9,8.1,11.8v0.8H291.5z"/>
	<path style="fill:#FFFFFF;" d="M389.8,86.5c-0.8,0-1.7,0-2.6-0.1c-12.5-0.5-15.7-3.6-19.5-9.8c-2.2-3.6-4.9-8.8-8.3-15.9
		c-1.6-3.5-3.4-5.8-7.6-5.9l-3.4,0v17.9c0,9.2,1.3,11.3,8.3,12v0.8h-27.5v-0.8c7.2-0.7,8.5-2.9,8.5-12V30.2c0-8.9-1-10.7-8-11.6
		v-0.8h28c7.7,0,12.3,1,16.2,3.6c4.2,2.9,6.4,7.4,6.4,13.2c0,7.7-3.8,13-11.7,16.4l-1.4,0.6l0.6,1.4c1.5,3.5,5.5,11.1,8.5,16
		c3.7,6.3,5.8,9.3,7.8,11.8c2.2,2.4,4.1,4,6,5L389.8,86.5z M354.9,19c-2.4,0-4.1,0.4-5.1,1.3l-0.1,0.1l-0.1,0.2
		c-0.8,1.1-1,2.3-1,4.9v27.9h4.5c4.6,0,7.5-0.9,10.1-3.1c3.5-2.9,5.3-7.6,5.3-14.1C368.3,23.5,361.1,19,354.9,19z"/>
	<path style="fill:#FFFFFF;" d="M414.6,86.9c-3.1,0-6.2-0.4-9.5-1.3c-2.4-0.7-4.2-1.4-5.6-2c-0.8-3.1-1.9-9.8-2.6-15.4l1.1-0.4
		c2,5.6,7.5,17.8,18.6,17.8c7,0,11.6-5.1,11.6-12.6c0-7.9-6.1-12.5-12.7-16.4c-10.3-5.9-17.1-11.7-17.1-21c0-11.7,8.7-19.2,22-19.2
		c4.8,0,9.3,1.2,12.6,2.2c0.3,3.5,0.9,7.4,1.7,12.2l0.1,0.9l-1,0.2c-1.9-5.6-5.6-14.3-15-14.3c-6.2,0-11,5.2-11,12.2
		c0,7.1,4.4,10.9,13.1,15.8c10.7,5.8,17.3,11.4,17.3,21.4C438.2,78.7,428.5,86.9,414.6,86.9z"/>
	<path style="fill:#FFFFFF;" d="M458.6,85.4v-0.8c7.9-0.8,9.1-2.7,9.1-11.9V19.2h-5.5c-6.3,0-9.2,0.9-11.2,3.4
		c-1.5,1.9-2.6,5.1-3.8,9.8h-1c0.1-1.9,0.2-3.7,0.4-5.5c0.3-4.3,0.6-8.4,0.7-11.8h0.5c1.7,2.1,3.4,2.7,6.6,2.7h38.1
		c2.8,0,4.6-0.8,6.3-2.7h0.5c0.1,3.5,0.4,9.2,1,17.1l-0.9,0.1c-1.2-4.8-2.3-8.1-4.1-10.1c-2.3-2.4-5.7-2.9-10-2.9h-6.5v53.5
		c0,9.3,1.3,11.1,9.5,11.9v0.8H458.6z"/>
	<path style="fill:#FFFFFF;" d="M48.6,229.3c-5.6,0-11.3-0.8-17.2-2.3c-4.6-1.4-7.9-2.7-10.7-3.8c-1.6-5.4-3.6-18.7-4.9-29.1
		l4.1-1.3c3.1,9.1,12.7,31.9,32.3,31.9c11.7,0,19.5-8.5,19.5-21.3c0-10.9-6.4-19.1-22.1-28.1c-18.6-10.7-31-21.3-31-38.4
		c0-21.1,16.2-35.3,40.4-35.3c9.1,0,17.6,2.3,23.4,4.3c0.6,6.3,1.6,13.5,3,22.4l0.4,2.7l-3.9,0.7c-3.3-9.6-9.4-25.6-25.9-25.6
		c-10.5,0-18.3,8.8-18.3,20.5c0,12,7.6,18.5,22.7,27.1c18.8,10.2,31.4,20.7,31.4,39C91.7,214.2,74,229.3,48.6,229.3z"/>
	<path style="fill:#FFFFFF;" d="M104.5,226.7v-2.8c12.8-1.5,14.5-4.2,14.5-20.3V128c0-15.9-1.7-18.8-13.5-20.3V104h46.9
		c14.7,0,24.1,2.1,31.5,7c8.8,5.9,13.4,15.4,13.4,27.5c0,30.7-25.9,37.3-37.1,38.6c-2.6,0.4-4.4,0.4-6.5,0.4l-13.1-3.6v29.6
		c0,16.4,1.7,18.9,16.4,20.4v2.8H104.5z M143.2,110.1c-2.3,1.5-2.6,4.5-2.6,7.5v51.9l1,0.4c2.1,0.8,5.4,1.9,9.7,1.9
		c8.2,0,22.1-6.8,22.1-32.4c0-29-17.6-31.3-23-31.3C147.2,108.1,144.9,108.7,143.2,110.1z"/>
	<path style="fill:#FFFFFF;" d="M211.6,226.7v-3.6c12.6-1.3,14.5-4.3,14.5-20v-75.4c0-16.2-1.7-18.9-14.5-20.2V104h51v3.6
		c-12.8,1.3-14.5,4-14.5,20.2v75.4c0,15.7,1.9,18.7,14.5,20v3.6H211.6z"/>
	<path style="fill:#FFFFFF;" d="M372,228.7l-69.5-95h-2.8v44.4c0,16.7,1,27,1.6,32.5c1.1,8.7,5.5,11.9,17.6,12.8v3.4h-41.6v-3.4
		c9.6-0.8,13.8-4.4,14.9-12.6l0.2-1.8c0.6-6.4,1.6-16,1.6-30.9v-40.9c0-12.9-0.2-16.9-3.6-21.6c-3.5-5-7.7-7.4-14.8-8.3V104h31.2
		l63.8,83.8h3v-35.8c0-17.3-1-27.2-1.8-33.1c-1.1-7.7-5.6-10.8-17.2-11.8V104h41v3.2c-9.5,0.8-13.4,4.1-14.3,11.8
		c-0.7,5.3-2,15.2-2,33.1v76.6H372z"/>
	<path style="fill:#FFFFFF;" d="M406,226.7v-3.6c14-1.4,16.2-3.3,16.2-19.8V127c0-16.1-2.2-18.1-14.1-19.4V104h81.5
		c0.3,4.5,1.1,15.6,1.8,25l-4,0.6c-1.6-5.7-3.6-11.4-6.8-15c-3.2-4.1-9-5.8-20.7-5.8h-7c-7.2,0-8.5,1.4-8.5,8.5V160h12.7
		c15.5,0,18.3-0.9,21.4-14.5h3.9v35.4h-3.9c-3-13.8-5.6-14.7-21.4-14.7h-12.7v36.9c0,8.8,0.8,14.3,4.9,16.4c3.3,1.9,8.8,2.3,16,2.3
		c11.2,0,17-1.8,21.3-6.8c3.7-4.5,6.8-10.1,9.6-17.2l4,0.9c-1.2,7.4-4.2,21.8-5.7,27.9H406z"/>
</g>
</svg>
